<svg enable-background="new 0 0 128 128" viewBox="0 0 128 128" xmlns="http://www.w3.org/2000/svg"><path d="m56.5 91h8.72v15.92h-8.72z" fill="#9e9e9e"/><path d="m63.22 93v11.92h-4.72v-11.92zm2-2h-8.72v15.92h8.72z" fill="#212121" opacity=".2"/><path d="m56.24 93.72h8.98v-5.44h-8.98c-1.5 0-2.72 1.22-2.72 2.72s1.22 2.72 2.72 2.72z" fill="#4e342e"/><path d="m64.22 89.28v3.44h-7.98c-.95 0-1.72-.77-1.72-1.72s.77-1.72 1.72-1.72zm1-1h-8.98c-1.5 0-2.72 1.22-2.72 2.72s1.22 2.72 2.72 2.72h8.98z" fill="#eee" opacity=".2"/><path d="m43.75 78.23 6.02 6.02" fill="none" stroke="#212121" stroke-linecap="round" stroke-miterlimit="10" stroke-width="3"/><path d="m37.12 90.88 9.64-9.64" fill="none" stroke="#212121" stroke-linecap="round" stroke-miterlimit="10" stroke-width="3"/><path d="m121.92 78.01c-1.07-5.09-2.86-13.51-4.72-22.09-3.32-15.37-16.35-14.56-17.78-14.56h-56.52c-.72 0-3.01-.01-4.83 2.03-4.07 4.57-11.16 16.46-15.16 22.42-1.53 2.28-2.34 4.95-2.35 7.7-.02 5.4-.04 17.05-.04 24.99l9.12 7.91c3.86 3.35 8.8 5.19 13.91 5.19h72.53c3.3 0 6-.94 6-6.84v-25.29c0-.49-.05-.98-.16-1.46zm-81.7 20.1v-39.36c0-2.64 2.14-4.78 4.78-4.78h18.05v48.91h-18.05c-2.64.01-4.78-2.13-4.78-4.77zm49.66-15.17h-3.16c-5.78 0-10.47 4.69-10.47 10.47v-1c0 5.78-1.69 10.47-7.47 10.47h-1.73v-48.9h18.05c2.64 0 4.78 2.14 4.78 4.78z" fill="#fdd835"/><path d="m35.61 46.51s-10.67 15.68-13.84 21.38c-.81 1.46-1.24 5.74-1.24 5.74h8.35c3.72 0 6.73-3.01 6.73-6.73z" fill="#90a4ae"/><path d="m121.92 78.01c-.11-.53-.02-.11-.15-.72h-31.89v5.65h-3.16c-5.78 0-10.47 4.69-10.47 10.47v-1c0 5.78-2.69 10.47-8.47 10.47h-22.78c-2.64 0-4.78-2.14-4.78-4.78v-20.81h-19.67l-.02 22.73 9.12 6.4c3.86 3.35 8.8 5.19 13.91 5.19h72.53c3.3 0 6-.94 6-6.84v-25.13c-.01-.49-.06-1.15-.17-1.63z" fill="#43a047"/><path d="m122.08 95.27v-11.87l-4.42.01c-1.04 0-2.22.01-1.88 2.24l.95 7.5c.34 1.62.86 2.23 1.9 2.23l2.62-.01c.34-.01.6-.05.83-.1z" fill="#ff6e40"/><path d="m32.45 87.65h-5.33c-1.21 0-2.18-.98-2.18-2.18v-.88c0-1.21.98-2.18 2.18-2.18h5.33c1.21 0 2.18.98 2.18 2.18v.88c0 1.2-.97 2.18-2.18 2.18z" fill="#ff6e40"/><path d="m63.05 53.94h4v49.72h-4z" fill="#43a047"/><g fill="none" stroke="#212121" stroke-linecap="round" stroke-miterlimit="10" stroke-width="2"><path d="m96.42 53.67 8.66-4.84" opacity=".2"/><path d="m97.5 57.62h10.75" opacity=".2"/><path d="m94 50.92 2.97-4.6" opacity=".2"/></g><path d="m100.14 43.35c4.59 0 12.66 1.69 15.11 12.99 1.69 7.83 3.54 16.5 4.72 22.08.07.34.11.7.11 1.06v25.29c0 4.52-1.51 4.84-4 4.84h-72.53c-4.63 0-9.1-1.67-12.6-4.7l-8.43-7.32c0-7.83.02-18.8.04-24.07.01-2.36.7-4.64 2.01-6.59 1.17-1.75 2.61-4.01 4.14-6.41 3.6-5.64 8.07-12.67 10.85-15.79 1.22-1.36 2.74-1.36 3.34-1.36h56.52.24c.14-.01.3-.02.48-.02m-35.09 8.63h-20.05c-3.74 0-6.78 3.04-6.78 6.78v39.35c0 3.74 3.04 6.78 6.78 6.78h23.78c4.18 0 9.13-2.02 9.45-11.47h.02c0-4.67 3.8-8.47 8.47-8.47h3.16 2v-26.2c0-3.74-3.04-6.78-6.78-6.78h-20.05m35.09-10.62c-.33 0-.58.01-.71.01h-56.52-.03c-.74 0-3.01.01-4.81 2.03-4.07 4.57-11.16 16.46-15.16 22.42-1.53 2.28-2.34 4.95-2.35 7.7-.02 5.4-.04 17.05-.04 24.99l9.12 7.91c3.86 3.35 8.8 5.19 13.91 5.19h72.53c3.3 0 6-.94 6-6.84v-25.29c0-.49-.05-.98-.15-1.47-1.07-5.09-2.86-13.51-4.72-22.09-3.01-13.89-13.94-14.56-17.07-14.56zm-33.09 61.54v-48.91h18.05c2.64 0 4.78 2.14 4.78 4.78v24.19h-3.16c-5.78 0-10.47 4.69-10.47 10.47v-1c0 5.78-1.69 10.47-7.47 10.47zm-22.05 0c-2.64 0-4.78-2.14-4.78-4.78v-39.36c0-2.64 2.14-4.78 4.78-4.78h18.05v48.91h-18.05z" fill="#424242" opacity=".2"/><circle cx="104.08" cy="113.66" fill="#4e342e" r="10"/><path d="m104.08 104.66c4.96 0 9 4.04 9 9s-4.04 9-9 9-9-4.04-9-9 4.03-9 9-9m0-1c-5.52 0-10 4.48-10 10s4.48 10 10 10 10-4.48 10-10c0-5.53-4.48-10-10-10z" fill="#eee" opacity=".2"/><circle cx="104.08" cy="113.66" fill="#bdbdbd" r="5.65"/><circle cx="14.66" cy="94.64" fill="#ffeb3b" r="4.79"/><circle cx="17.64" cy="113.66" fill="#4e342e" r="10"/><path d="m17.64 104.66c4.96 0 9 4.04 9 9s-4.04 9-9 9-9-4.04-9-9 4.04-9 9-9m0-1c-5.52 0-10 4.48-10 10s4.48 10 10 10 10-4.48 10-10c0-5.53-4.48-10-10-10z" fill="#eee" opacity=".2"/><circle cx="17.64" cy="113.66" fill="#9e9e9e" r="5.65"/><path d="m18.12 113.66 6.94-6.94" fill="none" stroke="#e0e0e0" stroke-linecap="round" stroke-miterlimit="10" stroke-width="3"/><path d="m22.18 97.58c.11 1.66-1.2 1.86-2.85 1.86h-5.03v-9.58c1.6-.01 7.37-.01 7.88 7.72z" fill="#66bb6a"/><path d="m27.43 109.19h-19.58c-1.52 0-2.64-1.42-2.29-2.9 0 0 3.56-7.71 12.08-7.71s12.08 7.71 12.08 7.71c.36 1.48-.77 2.9-2.29 2.9z" fill="#66bb6a"/><path d="m14.72 91.86c2.17.05 5.05.71 5.45 5.64l-6.2-.17c-1.23-.32-2.09-1.42-2.09-2.68 0-1.46 1.11-2.64 2.57-2.76zm13.06 15.03c-.01.07-.04.12-.07.16-.05.06-.14.14-.28.14h-19.58c-.14 0-.23-.07-.28-.14-.03-.04-.06-.09-.07-.16.52-.95 4.09-6.42 9.94-6.42s9.81 5.46 10.34 6.42zm-13.12-17.04h-.02-.35v.04c-2.47.19-4.41 2.24-4.41 4.75 0 2.23 1.53 4.08 3.59 4.62-5.53 1.88-7.91 7.03-7.91 7.03-.35 1.48.77 2.9 2.29 2.9h19.58c1.52 0 2.64-1.42 2.29-2.9 0 0-2.51-5.4-8.34-7.15.54-.25.85-.72.8-1.56-.47-7.17-5.47-7.68-7.48-7.72-.01 0-.02-.01-.04-.01z" fill="#212121" opacity=".2"/><path d="m29.72 106.29s-2.51-5.4-8.34-7.15c.54-.25.85-.72.8-1.56-.47-7.17-5.47-7.68-7.48-7.72h-.04-.02-.35v.04c-.01 0-.03.01-.04.01v2.02c.07-.01.13-.03.2-.03l.27-.03c2.17.05 5.05.71 5.45 5.64l-5.92-.16v1.68s-.36.09-.79.24c-5.53 1.88-7.91 7.03-7.91 7.03-.35 1.48.77 2.9 2.29 2.9h19.58c1.53-.01 2.66-1.43 2.3-2.91zm-2.01.76c-.05.06-.14.14-.28.14h-19.58c-.14 0-.23-.07-.28-.14-.03-.04-.06-.09-.07-.16.52-.95 4.09-6.42 9.94-6.42s9.81 5.46 10.35 6.43c-.02.06-.05.11-.08.15z" fill="#2e7d32"/></svg>